<?xml version="1.0" encoding="UTF-8"?>
<!-- Generator: visioncortex VTracer 0.6.4 -->
<svg version="1.1" xmlns="http://www.w3.org/2000/svg" width="512" height="512">
<path d="M0 0 C1.26066284 -0.00890762 2.52132568 -0.01781525 3.82019043 -0.0269928 C7.27091469 -0.05003878 10.72053047 -0.0353774 14.17121887 -0.01252341 C17.78571103 0.0064174 21.40012995 -0.00476962 25.01464844 -0.01142883 C31.08416311 -0.01776605 37.15323458 0.00048236 43.22265625 0.03320312 C50.23534576 0.07069699 57.24719577 0.06891836 64.25992966 0.04616195 C71.01164867 0.02519831 77.76305801 0.03249502 84.51477051 0.0524807 C87.38554756 0.06045814 90.25606206 0.05848574 93.12683105 0.04845619 C97.13711594 0.03592654 101.14608134 0.06467599 105.15625 0.09765625 C106.3460144 0.08910614 107.53577881 0.08055603 108.76159668 0.07174683 C117.7134553 0.19900041 117.7134553 0.19900041 120.80450439 3.17518616 C124.33878713 8.32692105 123.79312241 13.57130015 123.828125 19.63549805 C123.8590625 20.96387695 123.8590625 20.96387695 123.890625 22.3190918 C123.92164386 27.52250603 123.67334724 31.35989946 120.578125 35.76049805 C115.92398102 39.6181987 111.20779099 39.14881138 105.46484375 39.0534668 C104.17495544 39.04893494 104.17495544 39.04893494 102.85900879 39.04431152 C99.66109129 39.02867068 96.4633455 38.98678673 93.265625 38.94799805 C86.10875 38.88612305 78.951875 38.82424805 71.578125 38.76049805 C71.578125 53.94049805 71.578125 69.12049805 71.578125 84.76049805 C78.508125 85.75049805 85.438125 86.74049805 92.578125 87.76049805 C96.4859158 88.57622531 100.247719 89.39632671 104.078125 90.44799805 C105.5002832 90.8325415 105.5002832 90.8325415 106.95117188 91.22485352 C134.24953323 98.84753548 158.84776704 111.72326457 181.1796875 129.07299805 C183.3619755 130.95230719 183.3619755 130.95230719 185.578125 130.76049805 C186.87400547 129.47818724 186.87400547 129.47818724 188.265625 127.69799805 C192.06294443 123.24236953 196.09500389 119.05231371 200.203125 114.88549805 C200.84854248 114.21897217 201.49395996 113.55244629 202.15893555 112.86572266 C206.46375228 108.52875146 209.54229405 105.81777788 215.890625 105.69799805 C221.04319425 107.18263665 223.76892285 110.10802515 227.578125 113.76049805 C228.43277344 114.49268555 229.28742188 115.22487305 230.16796875 115.97924805 C239.30939807 123.81859419 239.30939807 123.81859419 241.578125 129.76049805 C241.81870806 134.81274238 241.16015754 137.48918071 237.890625 141.32299805 C236.46680039 142.81533305 235.02616079 144.29164385 233.578125 145.76049805 C231.77014038 147.65787687 229.97219807 149.56423798 228.1784668 151.47509766 C226.91791616 152.81641363 225.65126982 154.15203076 224.37817383 155.48144531 C223.7880249 156.10462646 223.19787598 156.72780762 222.58984375 157.36987305 C222.05834717 157.92642578 221.52685059 158.48297852 220.97924805 159.05639648 C219.4974232 160.85865079 218.54003359 162.64169548 217.578125 164.76049805 C218.30515625 165.74405273 219.0321875 166.72760742 219.78125 167.7409668 C255.04460083 216.13258779 269.70794276 273.26122922 261.07861328 332.61352539 C254.94889264 371.15601273 238.68001867 408.51156755 212.578125 437.76049805 C211.70671875 438.74018555 210.8353125 439.71987305 209.9375 440.72924805 C207.19375148 443.78107674 204.39454891 446.77557014 201.578125 449.76049805 C200.77632813 450.61643555 199.97453125 451.47237305 199.1484375 452.35424805 C193.02556402 458.69794647 186.38993372 464.13550067 179.35742188 469.42114258 C178.21301227 470.28259031 177.07325999 471.15027911 175.93945312 472.02563477 C143.95184014 496.70151369 101.01315411 512.61423074 60.48828125 512.9987793 C59.63468018 513.00852783 58.7810791 513.01827637 57.90161133 513.02832031 C39.08729701 513.19892527 21.00328112 513.01379148 2.578125 508.76049805 C1.7339502 508.57326172 0.88977539 508.38602539 0.02001953 508.19311523 C-31.18990116 501.13568736 -60.67187844 487.03912118 -85.421875 466.76049805 C-85.94555664 466.33833008 -86.46923828 465.91616211 -87.00878906 465.48120117 C-131.89686059 429.23278883 -159.59182085 376.88634545 -165.734375 319.57299805 C-170.68749509 265.65768977 -155.89235187 210.6673721 -122.30541992 167.97265625 C-119.73525793 164.681516 -117.72052762 161.79477392 -116.421875 157.76049805 C-124.37625764 149.60761804 -124.37625764 149.60761804 -132.796875 141.94799805 C-142.71154887 133.3193279 -142.71154887 133.3193279 -143.359375 127.01049805 C-142.91172153 119.98660189 -138.0843906 115.6061336 -133.421875 110.76049805 C-132.60976562 109.89424805 -131.79765625 109.02799805 -130.9609375 108.13549805 C-123.11763913 100.00556751 -123.11763913 100.00556751 -116.984375 99.44799805 C-110.73939346 99.99580344 -106.97063157 103.85950674 -102.546875 108.01049805 C-101.75361816 108.74465942 -101.75361816 108.74465942 -100.94433594 109.49365234 C-98.11744795 112.12338613 -95.36186432 114.80243301 -92.671875 117.57299805 C-89.2446402 121.07639362 -85.41258587 123.93072125 -81.421875 126.76049805 C-80.47570312 126.08245117 -79.52953125 125.4044043 -78.5546875 124.70581055 C-49.87859048 104.41653514 -18.9697764 91.9529163 15.578125 85.76049805 C17.31449219 85.44725586 17.31449219 85.44725586 19.0859375 85.12768555 C23.89172468 84.62237907 28.74584551 84.76049805 33.578125 84.76049805 C33.578125 69.58049805 33.578125 54.40049805 33.578125 38.76049805 C19.322704 38.87907404 19.322704 38.87907404 5.06762695 39.03076172 C3.27555884 39.03952663 1.48348474 39.04717055 -0.30859375 39.0534668 C-1.69528259 39.07648865 -1.69528259 39.07648865 -3.10998535 39.09997559 C-8.01769141 39.1019687 -11.49082025 39.05299117 -15.421875 35.76049805 C-18.64728164 30.92238809 -17.83159564 25.63659438 -17.859375 19.94799805 C-17.89224609 18.77172852 -17.92511719 17.59545898 -17.95898438 16.38354492 C-17.96607422 15.24336914 -17.97316406 14.10319336 -17.98046875 12.9284668 C-18.00065063 11.37035278 -18.00065063 11.37035278 -18.02124023 9.78076172 C-15.98382756 -0.48597235 -8.88840286 -0.10247168 0 0 Z M-81.421875 182.76049805 C-109.19446308 215.1249281 -125.23969756 255.4206726 -124.796875 298.19799805 C-124.79222229 299.00543457 -124.78756958 299.81287109 -124.78277588 300.64477539 C-124.70240583 312.56427121 -124.31260672 324.14302904 -121.421875 335.76049805 C-121.22319824 336.5882373 -121.02452148 337.41597656 -120.81982422 338.26879883 C-117.67472005 351.0636009 -113.22867348 362.94849748 -107.421875 374.76049805 C-106.95442871 375.72995361 -106.95442871 375.72995361 -106.47753906 376.71899414 C-98.93981179 392.21321131 -88.9253245 405.99980468 -76.87011719 418.28149414 C-75.45754437 419.72407104 -74.0682489 421.1893256 -72.6796875 422.6550293 C-44.14378426 452.22484207 -1.49203667 471.10442746 39.65625 471.96362305 C86.84628204 472.4201796 131.97983324 459.18163195 166.58984375 425.69018555 C167.33693604 424.95687012 167.33693604 424.95687012 168.09912109 424.20874023 C169.54169799 422.79616741 171.00695255 421.40687194 172.47265625 420.01831055 C205.43794267 388.20565652 221.06824337 343.80409604 222.578125 298.76049805 C223.32145265 253.56784758 204.21866612 210.14662356 173.4140625 177.6628418 C159.92061181 163.72705922 144.80924821 152.65079605 127.578125 143.76049805 C126.95969727 143.44097168 126.34126953 143.12144531 125.70410156 142.79223633 C56.38892624 107.5450459 -29.60311912 125.60990877 -81.421875 182.76049805 Z " fill="#000000" transform="translate(207.421875,-0.760498046875)"/>
<path d="M0 0 C1.01255859 0.00185303 2.02511719 0.00370605 3.06835938 0.00561523 C4.17308594 0.0049707 5.2778125 0.00432617 6.41601562 0.00366211 C7.56972656 0.02364258 8.7234375 0.04362305 9.91210938 0.06420898 C11.06582031 0.05711914 12.21953125 0.0500293 13.40820312 0.04272461 C21.79482216 0.10633374 21.79482216 0.10633374 24.05256653 1.5524292 C26.13316037 4.53553453 25.80462676 7.58878805 25.75268555 11.09423828 C25.75334267 12.25069351 25.75334267 12.25069351 25.75401306 13.43051147 C25.75192276 15.97924104 25.72858084 18.52731307 25.70507812 21.07592773 C25.69948302 22.8428359 25.69521252 24.60974872 25.69221497 26.37666321 C25.68075945 31.02760666 25.65128625 35.67826914 25.61810303 40.32910156 C25.58741734 45.07474975 25.57371284 49.82044332 25.55859375 54.56616211 C25.52641719 63.87813453 25.47521232 73.18989839 25.41210938 82.50170898 C26.12763474 82.49060593 26.8431601 82.47950287 27.58036804 82.46806335 C34.33339956 82.36775373 41.0862223 82.29169015 47.83983135 82.24264812 C51.31175787 82.21658671 54.7830673 82.18125512 58.25463867 82.12451172 C62.24859436 82.05964065 66.24190495 82.03550036 70.23632812 82.01342773 C71.4792009 81.98762131 72.72207367 81.96181488 74.00260925 81.93522644 C82.56678961 81.93244023 82.56678961 81.93244023 86.6940918 84.71191406 C88.5114676 87.66305138 89.05376862 89.19581125 89.07617188 92.62670898 C89.08261719 93.58061523 89.0890625 94.53452148 89.09570312 95.51733398 C89.06669922 96.99459961 89.06669922 96.99459961 89.03710938 98.50170898 C89.05644531 99.48655273 89.07578125 100.47139648 89.09570312 101.48608398 C89.08925781 102.43999023 89.0828125 103.39389648 89.07617188 104.37670898 C89.07053223 105.24038086 89.06489258 106.10405273 89.05908203 106.99389648 C88.09640614 110.72544622 86.42017766 112.12106542 83.41210938 114.50170898 C80.49228655 115.20259215 77.66514308 115.13536056 74.67456055 115.06933594 C73.80576263 115.07006607 72.93696472 115.0707962 72.0418396 115.07154846 C69.17894387 115.06807352 66.31768852 115.02921733 63.45507812 114.98999023 C61.46683135 114.98066177 59.47857306 114.97354581 57.49031067 114.96855164 C52.26380539 114.94948457 47.03799772 114.90038589 41.81176758 114.84503174 C36.47617021 114.7938332 31.14045984 114.77103628 25.8046875 114.74584961 C15.34018872 114.6922672 4.87620712 114.60695759 -5.58789062 114.50170898 C-5.65797033 100.22860953 -5.71067423 85.95553675 -5.74332714 71.68230057 C-5.75899721 65.05498547 -5.78026021 58.42778578 -5.81420898 51.80053711 C-5.8467542 45.40742607 -5.86473353 39.01442618 -5.87252235 32.62123871 C-5.87807453 30.17953491 -5.88891627 27.73783733 -5.9050808 25.29618073 C-5.92679034 21.88180797 -5.92986021 18.46789723 -5.9284668 15.0534668 C-5.93925262 14.03926666 -5.95003845 13.02506653 -5.96115112 11.98013306 C-5.95702713 11.04907745 -5.95290314 10.11802185 -5.94865417 9.15875244 C-5.95141955 8.35126179 -5.95418493 7.54377113 -5.95703411 6.71181107 C-5.32034273 2.89987072 -3.82196293 0.74095602 0 0 Z " fill="#000000" transform="translate(237.587890625,218.498291015625)"/>
</svg>
