<?xml version="1.0" encoding="UTF-8"?>
<!-- Generator: visioncortex VTracer 0.6.4 -->
<svg version="1.1" xmlns="http://www.w3.org/2000/svg" width="512" height="512">
<path d="M0 0 C3.94247801 3.53019273 5.5087274 6.58054749 7.29296875 11.54296875 C9.32529987 15.99739313 11.22735537 17.88080544 15.6484375 19.73046875 C19.93020048 21.27806515 24.28713757 22.51470014 28.66699219 23.75 C32.37917523 24.95716565 35.67238638 26.69499866 39.10546875 28.54296875 C39.10546875 29.20296875 39.10546875 29.86296875 39.10546875 30.54296875 C37.15496399 32.02318179 35.21005529 33.38727212 33.16796875 34.73046875 C28.24689495 38.0107385 23.68344598 41.43347532 19.30078125 45.42578125 C14.12854088 48.05791781 6.84649102 44.81934611 1.48046875 43.29296875 C0.743125 43.10089844 0.00578125 42.90882812 -0.75390625 42.7109375 C-5.66217863 41.31234376 -8.68748037 39.71391989 -11.89453125 35.54296875 C-13.1171875 32.3515625 -13.1171875 32.3515625 -13.95703125 28.98046875 C-15.12438312 24.32719979 -16.10286364 21.58920454 -19.89453125 18.54296875 C-23.06999028 17.48448241 -25.43461921 17.37625997 -28.76953125 17.35546875 C-29.79820312 17.34128906 -30.826875 17.32710937 -31.88671875 17.3125 C-35.00776452 17.55164507 -37.13411958 18.08014496 -39.89453125 19.54296875 C-41.61222299 22.71409196 -42.64808882 25.61021281 -43.56640625 29.0859375 C-43.91445313 30.39498047 -43.91445313 30.39498047 -44.26953125 31.73046875 C-44.46289062 32.54902344 -44.65625 33.36757813 -44.85546875 34.2109375 C-46.34147829 37.54607921 -47.75510001 38.61587133 -50.89453125 40.54296875 C-54.6082974 41.86645158 -58.39589581 42.85361036 -62.20703125 43.85546875 C-82.87565841 49.61199528 -100.67345833 58.33677753 -116.89453125 72.54296875 C-117.673125 73.18878906 -118.45171875 73.83460937 -119.25390625 74.5 C-143.46436027 94.99540159 -159.20313462 129.23127588 -161.89453125 160.54296875 C-162.02410435 163.38377711 -162.04820005 166.21901026 -162.05224609 169.0625 C-162.05732681 169.86246399 -162.06240753 170.66242798 -162.06764221 171.4866333 C-162.0782679 173.2101638 -162.08691802 174.93370742 -162.09376144 176.65725708 C-162.10571454 179.41211691 -162.12521364 182.16683115 -162.1468811 184.92163086 C-162.20789776 192.75043655 -162.2620655 200.57922884 -162.29589844 208.40820312 C-162.5616082 266.61294162 -169.99208737 317.64052487 -212.89453125 360.54296875 C-91.78453125 360.54296875 29.32546875 360.54296875 154.10546875 360.54296875 C150.14546875 356.58296875 146.18546875 352.62296875 142.10546875 348.54296875 C139.89879111 345.86171087 137.84158651 343.29665092 135.85546875 340.48046875 C135.38496094 339.84431641 134.91445313 339.20816406 134.4296875 338.55273438 C131.10546875 333.94437864 131.10546875 333.94437864 131.10546875 330.54296875 C134.62520874 330.03506716 138.14640917 329.53808352 141.66796875 329.04296875 C142.65861328 328.89988281 143.64925781 328.75679688 144.66992188 328.609375 C155.70641159 327.06939969 155.70641159 327.06939969 160.10546875 327.54296875 C162.14453125 329.1171875 162.14453125 329.1171875 163.73046875 331.23046875 C164.30410156 331.96136719 164.87773437 332.69226563 165.46875 333.4453125 C166.27892578 334.48365234 166.27892578 334.48365234 167.10546875 335.54296875 C168.03359375 336.45046875 168.96171875 337.35796875 169.91796875 338.29296875 C172.10546875 340.54296875 172.10546875 340.54296875 173.16796875 342.73046875 C173.94570313 344.67825521 173.94570313 344.67825521 175.828125 345.375 C178.77075283 346.88416933 180.98031248 348.8784499 183.48046875 351.04296875 C188.59411334 355.43173688 193.92357073 359.36020813 199.56005859 363.0546875 C203.14680637 365.4970773 205.01198447 367.30571716 206.10546875 371.54296875 C206.57272391 375.82614103 206.41296433 377.97190553 204.35546875 381.79296875 C200.86740864 386.05615333 198.52961714 387.71514218 193.10546875 388.54296875 C190.57557809 388.63596312 188.07383263 388.68078669 185.5444355 388.67439651 C184.78774879 388.67644915 184.03106208 388.67850178 183.25144547 388.68061662 C180.7074191 388.6862861 178.16344687 388.68482943 175.61941528 388.68341064 C173.78042726 388.6859943 171.9414398 388.68900746 170.10245311 388.69241405 C165.04215942 388.70048705 159.98187992 388.70227378 154.92158055 388.70301151 C149.46681032 388.7048615 144.01204747 388.71240847 138.55728149 388.71914673 C126.62773696 388.73273182 114.69819579 388.7387548 102.76864481 388.74315739 C95.32258819 388.74591902 87.87653288 388.75015618 80.43047714 388.75466156 C59.82163894 388.76685352 39.21280177 388.77715359 18.60396004 388.78053665 C17.28484196 388.78075622 15.96572388 388.78097578 14.60663252 388.781202 C13.27097789 388.78142264 11.93532326 388.78164313 10.59966862 388.78186345 C7.92012413 388.782306 5.24057964 388.78275312 2.56103516 388.78320312 C1.89666506 388.78331252 1.23229496 388.78342191 0.54779244 388.78353461 C-21.00168636 388.78716646 -42.55113155 388.80309224 -64.10059748 388.82639349 C-86.88392097 388.85098388 -109.66722798 388.86470236 -132.45056546 388.86590457 C-144.87035087 388.86682217 -157.29009226 388.87259606 -169.70986557 388.89072418 C-180.2830314 388.90610247 -190.85613959 388.911259 -201.42931448 388.90298608 C-206.82556992 388.89907178 -212.2217092 388.90004726 -217.61795044 388.91404343 C-222.55634731 388.92673523 -227.49454016 388.92562648 -232.43293656 388.91345271 C-234.22092329 388.91148753 -236.00892424 388.91461183 -237.79689096 388.92329708 C-240.22544775 388.93434864 -242.65327928 388.92693045 -245.08181572 388.91490555 C-246.12539532 388.92629834 -246.12539532 388.92629834 -247.19005734 388.93792129 C-253.13143148 388.87432189 -257.69103129 387.39854767 -262.26953125 383.54296875 C-265.32509804 379.78227116 -265.21199562 376.22556815 -264.89453125 371.54296875 C-262.90103944 366.27846574 -259.98103289 363.72715562 -255.39453125 360.73046875 C-254.12430728 359.86097995 -252.85609915 358.98853948 -251.58984375 358.11328125 C-250.64866699 357.46601074 -250.64866699 357.46601074 -249.68847656 356.80566406 C-245.20794165 353.65197237 -241.04734352 350.11020461 -236.89453125 346.54296875 C-235.90582031 345.70121094 -234.91710937 344.85945313 -233.8984375 343.9921875 C-226.49931373 337.54683861 -220.59350483 330.51126334 -214.89453125 322.54296875 C-214.35441406 321.83140625 -213.81429687 321.11984375 -213.2578125 320.38671875 C-205.52879918 309.71432775 -199.6333398 296.39430118 -196.89453125 283.54296875 C-196.57014095 282.21392663 -196.24166684 280.88587773 -195.91015625 279.55859375 C-191.28204854 260.85876454 -189.77479203 242.47957065 -189.69530106 223.27222633 C-189.6832664 220.6152278 -189.66375937 217.95837476 -189.6421814 215.30143738 C-189.58137077 207.75724283 -189.52674434 200.21307062 -189.49316406 192.66870117 C-189.47195067 188.02285414 -189.43645399 183.37728773 -189.39240646 178.73160362 C-189.37846919 176.98616571 -189.3695759 175.24067834 -189.36635208 173.49518776 C-189.27681562 129.66742295 -172.2121086 90.99391347 -141.89453125 59.54296875 C-141.23195313 58.82882813 -140.569375 58.1146875 -139.88671875 57.37890625 C-130.09583659 47.09643168 -118.23810618 39.39152142 -105.89453125 32.54296875 C-105.2617627 32.18960449 -104.62899414 31.83624023 -103.97705078 31.47216797 C-93.51407301 25.71314515 -80.06268586 18.54296875 -67.89453125 18.54296875 C-67.79398438 17.65609375 -67.6934375 16.76921875 -67.58984375 15.85546875 C-66.10274413 8.77085932 -60.59027553 2.32300718 -54.98046875 -2.14453125 C-38.08221985 -12.7771373 -15.90663411 -12.23334953 0 0 Z " fill="#000000" transform="translate(264.89453125,18.45703125)"/>
<path d="M0 0 C2.66613278 2.25739183 5.25827805 4.58801143 7.8293457 6.95263672 C8.70204102 7.74283203 9.57473633 8.53302734 10.47387695 9.34716797 C33.27794062 31.00205048 46.82505063 62.25243105 48.10668945 93.55419922 C48.95225394 128.09292004 37.79441481 160.27489306 14.0246582 185.65966797 C13.30020508 186.41634766 12.57575195 187.17302734 11.8293457 187.95263672 C10.80454102 189.0721875 10.80454102 189.0721875 9.7590332 190.21435547 C-10.90273485 212.05788516 -41.67309547 224.3149705 -71.39331055 225.88623047 C-107.01412007 226.51244946 -139.68113071 214.68101466 -165.86987305 190.29248047 C-169.98185586 186.11068471 -173.60120693 181.5994082 -177.1706543 176.95263672 C-177.83838867 176.11216797 -178.50612305 175.27169922 -179.1940918 174.40576172 C-187.21412367 163.94485058 -193.32693589 152.30360905 -197.5456543 139.82763672 C-197.7720459 139.16111084 -197.9984375 138.49458496 -198.23168945 137.80786133 C-202.11022087 125.57052648 -203.71013374 113.56679442 -203.6081543 100.76513672 C-203.60511292 100.09553925 -203.60207153 99.42594177 -203.59893799 98.73605347 C-203.41269353 70.83787557 -194.59319065 43.93497751 -177.1706543 21.95263672 C-176.1806543 20.64166016 -176.1806543 20.64166016 -175.1706543 19.30419922 C-170.95699203 13.82314635 -166.48128471 9.35017455 -161.1706543 4.95263672 C-160.58026367 4.40220703 -159.98987305 3.85177734 -159.3815918 3.28466797 C-116.97997713 -36.13981205 -44.40249798 -36.28410672 0 0 Z M-141.1706543 24.95263672 C-142.39075195 25.95423828 -142.39075195 25.95423828 -143.63549805 26.97607422 C-161.32275019 42.07428329 -172.08456801 64.05941854 -175.1706543 86.95263672 C-177.30893796 115.30731651 -170.77736221 141.33172793 -152.38549805 163.36279297 C-136.36625926 181.77970524 -115.42266714 193.41552962 -91.1706543 196.95263672 C-58.8564001 198.79263394 -33.22420601 191.57243485 -8.86987305 169.90576172 C10.15772842 151.8969092 20.07794674 126.17369109 20.82006836 100.27197266 C20.9183048 75.71286175 12.55459843 53.8999605 -4.1706543 35.95263672 C-4.98663086 35.05544922 -5.80260742 34.15826172 -6.64331055 33.23388672 C-19.84100341 19.32802497 -37.569301 9.47793394 -56.1706543 4.95263672 C-57.08459961 4.72833984 -57.99854492 4.50404297 -58.94018555 4.27294922 C-87.66169325 -1.59186214 -118.8294749 6.06948335 -141.1706543 24.95263672 Z " fill="#000000" transform="translate(464.170654296875,88.04736328125)"/>
<path d="M0 0 C1.27041641 -0.0087616 2.54083282 -0.01752319 3.8497467 -0.02655029 C7.32719166 -0.04930984 10.80389345 -0.040522 14.28135109 -0.02465487 C17.9238749 -0.01197813 21.56633594 -0.02374088 25.2088623 -0.03158569 C31.32539267 -0.04067717 37.44162098 -0.02870783 43.55810547 -0.00488281 C50.62530775 0.0223279 57.69178879 0.01351335 64.7589736 -0.01401484 C70.83135184 -0.03671952 76.90351321 -0.03989948 82.9759202 -0.02682149 C86.60067978 -0.01903429 90.22510057 -0.01796479 93.84983826 -0.03450394 C97.89121066 -0.05165672 101.93134371 -0.02787145 105.97265625 0 C107.17177139 -0.01012115 108.37088654 -0.02024231 109.6063385 -0.03067017 C118.62965987 0.0847856 118.62965987 0.0847856 121.74133301 2.97671509 C124.04938573 6.50858472 123.98367586 8.48448576 123.48632812 12.64697266 C119.2280925 31.66994486 107.3424841 47.56926645 91.04882812 58.08447266 C73.15016906 68.34580163 54.58354818 70.86760755 34.48632812 66.64697266 C16.17614171 61.12683682 -0.29461616 49.04071918 -9.76367188 32.20947266 C-10.70402291 30.36720456 -11.62163096 28.51311167 -12.51367188 26.64697266 C-12.91714844 25.81037109 -13.320625 24.97376953 -13.73632812 24.11181641 C-16.25061157 18.42539041 -18.52364088 11.90878047 -17.51367188 5.64697266 C-13.12349506 -0.94636104 -7.37006751 -0.0622072 0 0 Z " fill="#000000" transform="translate(182.513671875,435.35302734375)"/>
<path d="M0 0 C4.6314797 2.53420588 8.31032562 4.93097685 10 10 C10.09568151 11.68675224 10.13537217 13.37695482 10.1418457 15.06640625 C10.14888016 16.09757568 10.15591461 17.12874512 10.16316223 18.19116211 C10.16732651 19.30370361 10.17149078 20.41624512 10.17578125 21.5625 C10.19896989 23.90886323 10.22308682 26.25521744 10.24804688 28.6015625 C10.28324394 32.30833052 10.31255327 36.01476444 10.32592773 39.72167969 C10.34134625 43.29403163 10.38150779 46.86540475 10.42578125 50.4375 C10.42387283 51.5500415 10.42196442 52.66258301 10.41999817 53.80883789 C10.43648911 54.84000732 10.45298004 55.87117676 10.4699707 56.93359375 C10.47583694 57.84165771 10.48170319 58.74972168 10.48774719 59.68530273 C11.15864379 62.71685765 12.4829216 63.3256579 15 65 C15 65.66 15 66.32 15 67 C15.95253662 66.98428955 16.90507324 66.9685791 17.88647461 66.95239258 C21.45914069 66.89762303 25.03177054 66.86348116 28.60473633 66.83520508 C30.14386255 66.82022457 31.68294688 66.7998329 33.22192383 66.77368164 C52.4239727 66.45582884 52.4239727 66.45582884 58.60131836 71.24023438 C61.6639024 74.40919898 62.91211627 77.69033745 63.19921875 81.98046875 C62.71411263 86.89811319 59.95101482 90.11857163 56.4375 93.375 C52.12642342 96.24905105 48.32139341 96.10642084 43.33203125 96.0703125 C41.78319191 96.0789017 40.23436211 96.08937947 38.68554688 96.1015625 C36.25374909 96.11820356 33.82407998 96.12512149 31.39233398 96.09960938 C20.51990192 95.65684937 20.51990192 95.65684937 11.1953125 100.4296875 C10.12349416 101.61374841 9.05722051 102.80288697 8 104 C1.92942329 107.14704419 -4.41611485 107.71753526 -11 106 C-18.30363195 103.60179249 -23.38649423 98.69874974 -27.1015625 92.01953125 C-29.52348905 86.34950694 -30.09818188 80.566139 -28.2734375 74.640625 C-26.24213898 69.71926761 -23.7130858 65.81079858 -20 62 C-19.34 62 -18.68 62 -18 62 C-18.00666183 61.3596431 -18.01332367 60.71928619 -18.02018738 60.05952454 C-18.08657792 53.39235456 -18.1318162 46.72527856 -18.16479492 40.05786133 C-18.17987761 37.5698668 -18.20034654 35.08189883 -18.22631836 32.59399414 C-18.26272337 29.01702312 -18.27973184 25.44040378 -18.29296875 21.86328125 C-18.30845261 20.75165115 -18.32393646 19.64002106 -18.33988953 18.4947052 C-18.34022942 16.93365303 -18.34022942 16.93365303 -18.34057617 15.34106445 C-18.34723801 14.4283931 -18.35389984 13.51572174 -18.36076355 12.57539368 C-17.74577341 8.18514495 -15.7113094 5.62456435 -12.4375 2.75 C-8.36772565 -0.17188927 -4.9501743 -0.68214692 0 0 Z " fill="#000000" transform="translate(387,120)"/>
</svg>
